<?xml version="1.0" encoding="UTF-8" standalone="no"?>
<!-- Created with Inkscape (http://www.inkscape.org/) -->

<svg
   width="512"
   height="512"
   viewBox="0 0 512 512.00003"
   version="1.1"
   id="svg135"
   sodipodi:docname="Logo.svg"
   inkscape:version="1.2.1 (9c6d41e410, 2022-07-14)"
   inkscape:export-filename="Logo.png"
   inkscape:export-xdpi="96"
   inkscape:export-ydpi="96"
   xmlns:inkscape="http://www.inkscape.org/namespaces/inkscape"
   xmlns:sodipodi="http://sodipodi.sourceforge.net/DTD/sodipodi-0.dtd"
   xmlns:xlink="http://www.w3.org/1999/xlink"
   xmlns="http://www.w3.org/2000/svg"
   xmlns:svg="http://www.w3.org/2000/svg">
  <sodipodi:namedview
     id="namedview137"
     pagecolor="#ffffff"
     bordercolor="#000000"
     borderopacity="0.25"
     inkscape:showpageshadow="2"
     inkscape:pageopacity="0.0"
     inkscape:pagecheckerboard="0"
     inkscape:deskcolor="#d1d1d1"
     inkscape:document-units="px"
     showgrid="false"
     inkscape:zoom="1"
     inkscape:cx="265.5"
     inkscape:cy="259"
     inkscape:window-width="1920"
     inkscape:window-height="1009"
     inkscape:window-x="-8"
     inkscape:window-y="-8"
     inkscape:window-maximized="1"
     inkscape:current-layer="layer1" />
  <defs
     id="defs132">
    <linearGradient
       inkscape:collect="always"
       id="linearGradient2099">
      <stop
         style="stop-color:#0000ff;stop-opacity:1;"
         offset="0"
         id="stop2095" />
      <stop
         style="stop-color:#0000ff;stop-opacity:0;"
         offset="1"
         id="stop2097" />
    </linearGradient>
    <linearGradient
       inkscape:collect="always"
       xlink:href="#linearGradient2099"
       id="linearGradient2101"
       x1="168.76244"
       y1="115.69535"
       x2="164.99905"
       y2="244.27756"
       gradientUnits="userSpaceOnUse" />
  </defs>
  <g
     inkscape:label="レイヤー 1"
     inkscape:groupmode="layer"
     id="layer1">
    <path
       sodipodi:type="spiral"
       style="mix-blend-mode:normal;fill:url(#linearGradient2101);fill-opacity:1;fill-rule:evenodd;stroke:#000000;stroke-width:5;stroke-dasharray:none"
       id="path2022"
       sodipodi:cx="164.68456"
       sodipodi:cy="191.49367"
       sodipodi:expansion="1"
       sodipodi:revolution="3"
       sodipodi:radius="139.05394"
       sodipodi:argument="-18.453705"
       sodipodi:t0="0"
       d="m 164.68456,191.49367 c 6.43279,2.68833 -0.45012,9.99761 -4.4682,10.69172 -10.88875,1.88102 -17.74033,-10.24247 -16.91526,-19.62811 1.47585,-16.78871 19.40582,-26.04523 34.78803,-23.13879 22.57402,4.26531 34.5253,28.66782 29.36233,49.94795 -6.88142,28.36306 -37.96148,43.07572 -65.10787,35.58586 -34.16096,-9.42522 -51.661684,-47.2694 -41.8094,-80.26779 11.93245,-39.96546 56.58521,-60.26807 95.42771,-48.03293 45.77455,14.41868 68.88724,65.90589 54.25647,110.58763 -16.89181,51.58684 -75.22983,77.51495 -125.74755,60.48 C 67.069379,268.36302 38.322184,203.16315 57.767287,146.81174 79.581754,83.593985 151.65127,52.025072 213.83467,73.884673 282.87004,98.152974 317.26263,177.09784 292.98528,245.11198"
       transform="matrix(1.968191,0,0,1.968191,-90.853541,-94.87923)" />
  </g>
</svg>
